<?xml version="1.0" encoding="UTF-8"?>
<svg width="72px" height="48px" viewBox="0 0 72 48" version="1.1" xmlns="http://www.w3.org/2000/svg" xmlns:xlink="http://www.w3.org/1999/xlink">
    <title>Group 15</title>
    <defs>
        <linearGradient x1="-1.11022302e-14%" y1="50%" x2="100%" y2="50%" id="linearGradient-1">
            <stop stop-color="#40A0F0" offset="0%"></stop>
            <stop stop-color="#4060F0" offset="100%"></stop>
        </linearGradient>
        <linearGradient x1="100%" y1="50%" x2="-2.22044605e-14%" y2="50%" id="linearGradient-2">
            <stop stop-color="#40A0F0" offset="0%"></stop>
            <stop stop-color="#4060F0" offset="100%"></stop>
        </linearGradient>
    </defs>
    <g id="Page-1" stroke="none" stroke-width="1" fill="none" fill-rule="evenodd">
        <g id="Group-15">
            <path d="M6.84,28 C6.87333333,28 6.90166667,27.9883333 6.925,27.965 C6.94833333,27.9416667 6.96,27.9133333 6.96,27.88 L6.96,27.88 L6.96,25.22 C6.96,25.1866667 6.97666667,25.17 7.01,25.17 L7.01,25.17 L7.76,25.17 C8.3,25.17 8.73666667,24.9833333 9.07,24.61 C9.40333333,24.2366667 9.57,23.74 9.57,23.12 C9.57,22.7066667 9.49166667,22.3383333 9.335,22.015 C9.17833333,21.6916667 8.95666667,21.44 8.67,21.26 C8.38333333,21.08 8.05666667,20.99 7.69,20.99 L7.69,20.99 L5.67,20.99 C5.63666667,20.99 5.60833333,21.0016667 5.585,21.025 C5.56166667,21.0483333 5.55,21.0766667 5.55,21.11 L5.55,21.11 L5.55,27.88 C5.55,27.9133333 5.56166667,27.9416667 5.585,27.965 C5.60833333,27.9883333 5.63666667,28 5.67,28 L5.67,28 L6.84,28 Z M7.45,24.07 L7.01,24.07 C6.97666667,24.07 6.96,24.0533333 6.96,24.02 L6.96,24.02 L6.96,22.26 C6.96,22.2266667 6.97666667,22.21 7.01,22.21 L7.01,22.21 L7.45,22.21 C7.66333333,22.21 7.835,22.2933333 7.965,22.46 C8.095,22.6266667 8.16,22.8566667 8.16,23.15 C8.16,23.4366667 8.095,23.6616667 7.965,23.825 C7.835,23.9883333 7.66333333,24.07 7.45,24.07 L7.45,24.07 Z M11.44,27.99 C11.4733333,27.99 11.5016667,27.9783333 11.525,27.955 C11.5483333,27.9316667 11.56,27.9033333 11.56,27.87 L11.56,27.87 L11.56,25.12 C11.56,24.9133333 11.6066667,24.7316667 11.7,24.575 C11.7933333,24.4183333 11.9166667,24.3266667 12.07,24.3 C12.1433333,24.2733333 12.23,24.26 12.33,24.26 C12.4366667,24.26 12.5266667,24.2733333 12.6,24.3 C12.6866667,24.32 12.7333333,24.2933333 12.74,24.22 L12.74,24.22 L12.93,23.05 C12.9433333,22.9833333 12.9233333,22.9333333 12.87,22.9 C12.77,22.8333333 12.63,22.8 12.45,22.8 C12.07,22.8 11.79,22.9966667 11.61,23.39 C11.5966667,23.41 11.585,23.4183333 11.575,23.415 C11.565,23.4116667 11.56,23.3966667 11.56,23.37 L11.56,23.37 L11.56,22.98 C11.56,22.9466667 11.5483333,22.9183333 11.525,22.895 C11.5016667,22.8716667 11.4733333,22.86 11.44,22.86 L11.44,22.86 L10.27,22.86 C10.2366667,22.86 10.2083333,22.8716667 10.185,22.895 C10.1616667,22.9183333 10.15,22.9466667 10.15,22.98 L10.15,22.98 L10.15,27.87 C10.15,27.9033333 10.1616667,27.9316667 10.185,27.955 C10.2083333,27.9783333 10.2366667,27.99 10.27,27.99 L10.27,27.99 L11.44,27.99 Z M15.22,28.08 C15.82,28.08 16.2883333,27.93 16.625,27.63 C16.9616667,27.33 17.13,26.92 17.13,26.4 L17.13,26.4 L17.13,24.46 C17.13,23.9533333 16.96,23.5466667 16.62,23.24 C16.28,22.9333333 15.8133333,22.78 15.22,22.78 C14.6333333,22.78 14.17,22.9333333 13.83,23.24 C13.49,23.5466667 13.32,23.9533333 13.32,24.46 L13.32,24.46 L13.32,26.4 C13.32,26.92 13.4883333,27.33 13.825,27.63 C14.1616667,27.93 14.6266667,28.08 15.22,28.08 Z M15.22,26.86 C15.0733333,26.86 14.955,26.8066667 14.865,26.7 C14.775,26.5933333 14.73,26.4566667 14.73,26.29 L14.73,26.29 L14.73,24.56 C14.73,24.3933333 14.775,24.2566667 14.865,24.15 C14.955,24.0433333 15.0733333,23.99 15.22,23.99 C15.3666667,23.99 15.4866667,24.0433333 15.58,24.15 C15.6733333,24.2566667 15.72,24.3933333 15.72,24.56 L15.72,24.56 L15.72,26.29 C15.72,26.4566667 15.6733333,26.5933333 15.58,26.7 C15.4866667,26.8066667 15.3666667,26.86 15.22,26.86 Z M20.18,28.08 C20.64,28.08 20.9866667,27.9316667 21.22,27.635 C21.4533333,27.3383333 21.57,26.9266667 21.57,26.4 L21.57,26.4 L21.57,24.46 C21.57,23.92 21.4516667,23.505 21.215,23.215 C20.9783333,22.925 20.6333333,22.78 20.18,22.78 C19.8333333,22.78 19.5466667,22.8933333 19.32,23.12 C19.2933333,23.1533333 19.2666667,23.17 19.24,23.17 C19.2266667,23.17 19.22,23.1633333 19.22,23.15 L19.22,23.15 L19.22,21.12 C19.22,21.0866667 19.2083333,21.0583333 19.185,21.035 C19.1616667,21.0116667 19.1333333,21 19.1,21 L19.1,21 L17.93,21 C17.8966667,21 17.8683333,21.0116667 17.845,21.035 C17.8216667,21.0583333 17.81,21.0866667 17.81,21.12 L17.81,21.12 L17.81,27.88 C17.81,27.9133333 17.8216667,27.9416667 17.845,27.965 C17.8683333,27.9883333 17.8966667,28 17.93,28 L17.93,28 L19.1,28 C19.1333333,28 19.1616667,27.9883333 19.185,27.965 C19.2083333,27.9416667 19.22,27.9133333 19.22,27.88 L19.22,27.88 L19.22,27.72 C19.22,27.7 19.2266667,27.6883333 19.24,27.685 C19.2533333,27.6816667 19.2666667,27.6866667 19.28,27.7 C19.5066667,27.9533333 19.8066667,28.08 20.18,28.08 Z M19.69,26.87 C19.57,26.87 19.4666667,26.83 19.38,26.75 C19.2933333,26.67 19.24,26.5633333 19.22,26.43 L19.22,26.43 L19.22,24.43 C19.24,24.2966667 19.2933333,24.19 19.38,24.11 C19.4666667,24.03 19.57,23.99 19.69,23.99 C19.83,23.99 19.9433333,24.0433333 20.03,24.15 C20.1166667,24.2566667 20.16,24.3933333 20.16,24.56 L20.16,24.56 L20.16,26.3 C20.16,26.4666667 20.1166667,26.6033333 20.03,26.71 C19.9433333,26.8166667 19.83,26.87 19.69,26.87 Z" id="Prob" fill="#181830" fill-rule="nonzero"></path>
            <path d="M34.345,28 C34.3783333,28 34.4066667,27.9883333 34.43,27.965 C34.4533333,27.9416667 34.465,27.9133333 34.465,27.88 L34.465,27.88 L34.465,21.12 C34.465,21.0866667 34.4533333,21.0583333 34.43,21.035 C34.4066667,21.0116667 34.3783333,21 34.345,21 L34.345,21 L33.175,21 C33.1416667,21 33.1133333,21.0116667 33.09,21.035 C33.0666667,21.0583333 33.055,21.0866667 33.055,21.12 L33.055,21.12 L33.055,27.88 C33.055,27.9133333 33.0666667,27.9416667 33.09,27.965 C33.1133333,27.9883333 33.1416667,28 33.175,28 L33.175,28 L34.345,28 Z M36.585,28 C36.6183333,28 36.6466667,27.9883333 36.67,27.965 C36.6933333,27.9416667 36.705,27.9133333 36.705,27.88 L36.705,27.88 L36.705,24.62 C36.705,24.42 36.7466667,24.265 36.83,24.155 C36.9133333,24.045 37.0316667,23.99 37.185,23.99 C37.3316667,23.99 37.4433333,24.0433333 37.52,24.15 C37.5966667,24.2566667 37.635,24.4066667 37.635,24.6 L37.635,24.6 L37.635,27.88 C37.635,27.9133333 37.6466667,27.9416667 37.67,27.965 C37.6933333,27.9883333 37.7216667,28 37.755,28 L37.755,28 L38.925,28 C38.9583333,28 38.9866667,27.9883333 39.01,27.965 C39.0333333,27.9416667 39.045,27.9133333 39.045,27.88 L39.045,27.88 L39.045,24.49 C39.045,23.95 38.9316667,23.53 38.705,23.23 C38.4783333,22.93 38.1383333,22.78 37.685,22.78 C37.305,22.78 37.0083333,22.9066667 36.795,23.16 C36.7683333,23.1866667 36.7466667,23.2 36.73,23.2 C36.7133333,23.2 36.705,23.19 36.705,23.17 L36.705,23.17 L36.705,22.98 C36.705,22.9466667 36.6933333,22.9183333 36.67,22.895 C36.6466667,22.8716667 36.6183333,22.86 36.585,22.86 L36.585,22.86 L35.415,22.86 C35.3816667,22.86 35.3533333,22.8716667 35.33,22.895 C35.3066667,22.9183333 35.295,22.9466667 35.295,22.98 L35.295,22.98 L35.295,27.88 C35.295,27.9133333 35.3066667,27.9416667 35.33,27.965 C35.3533333,27.9883333 35.3816667,28 35.415,28 L35.415,28 L36.585,28 Z" id="In" fill="#181830" fill-rule="nonzero"></path>
            <path d="M24,0 C27.9572866,0 31.6908749,0.957766293 34.9816057,2.65413979 C34.321557,3.05625874 33.6823705,3.48890974 33.065163,3.94938835 C30.3017562,2.69706225 27.2322819,2 24,2 C11.8497355,2 2,11.8497355 2,24 C2,36.1502645 11.8497355,46 24,46 C27.2322819,46 30.3017562,45.3029377 33.0662974,44.0509387 C33.6823705,44.5110903 34.321557,44.9437413 34.9808638,45.346706 C31.6908749,47.0422337 27.9572866,48 24,48 C10.745166,48 0,37.254834 0,24 C0,10.745166 10.745166,0 24,0 Z M48,24 C48,31.6662299 44.4055849,38.4929393 38.8101097,42.8867731 C38.1506071,42.5661991 37.5113664,42.2117223 36.8936236,41.8260274 C42.4111468,37.8301294 46,31.3341755 46,24 C46,16.6662677 42.4115805,10.1706557 36.8947841,6.17320666 C37.5120529,5.78789704 38.1509607,5.43362851 38.8091374,5.11275034 C44.4055849,9.50706073 48,16.3337701 48,24 Z" id="Combined-Shape" fill="url(#linearGradient-1)" fill-rule="nonzero"></path>
            <path d="M48,0 C61.254834,0 72,10.745166 72,24 C72,37.254834 61.254834,48 48,48 C34.745166,48 24,37.254834 24,24 C24,10.745166 34.745166,0 48,0 Z M48,2 C35.8497355,2 26,11.8497355 26,24 C26,36.1502645 35.8497355,46 48,46 C60.1502645,46 70,36.1502645 70,24 C70,11.8497355 60.1502645,2 48,2 Z" id="Oval" fill="url(#linearGradient-2)" fill-rule="nonzero"></path>
            <path d="M52.495,28.08 C53.095,28.08 53.5783333,27.9083333 53.945,27.565 C54.3116667,27.2216667 54.495,26.7633333 54.495,26.19 L54.495,26.19 L54.495,24.34 C54.495,24.3066667 54.4833333,24.2783333 54.46,24.255 C54.4366667,24.2316667 54.4083333,24.22 54.375,24.22 L54.375,24.22 L52.595,24.22 C52.5616667,24.22 52.5333333,24.2316667 52.51,24.255 C52.4866667,24.2783333 52.475,24.3066667 52.475,24.34 L52.475,24.34 L52.475,25.23 C52.475,25.2633333 52.4866667,25.2916667 52.51,25.315 C52.5333333,25.3383333 52.5616667,25.35 52.595,25.35 L52.595,25.35 L53.035,25.35 C53.0683333,25.35 53.085,25.3666667 53.085,25.4 L53.085,25.4 L53.085,26.2 C53.085,26.4 53.0316667,26.5616667 52.925,26.685 C52.8183333,26.8083333 52.675,26.87 52.495,26.87 C52.3216667,26.87 52.1816667,26.8083333 52.075,26.685 C51.9683333,26.5616667 51.915,26.4 51.915,26.2 L51.915,26.2 L51.915,22.8 C51.915,22.6 51.9683333,22.4383333 52.075,22.315 C52.1816667,22.1916667 52.3216667,22.13 52.495,22.13 C52.675,22.13 52.8183333,22.1916667 52.925,22.315 C53.0316667,22.4383333 53.085,22.6 53.085,22.8 L53.085,22.8 L53.085,23.2 C53.085,23.2333333 53.0966667,23.2616667 53.12,23.285 C53.1433333,23.3083333 53.1716667,23.32 53.205,23.32 L53.205,23.32 L54.375,23.32 C54.4083333,23.32 54.4366667,23.3083333 54.46,23.285 C54.4833333,23.2616667 54.495,23.2333333 54.495,23.2 L54.495,23.2 L54.495,22.82 C54.495,22.2466667 54.3116667,21.7866667 53.945,21.44 C53.5783333,21.0933333 53.095,20.92 52.495,20.92 C51.895,20.92 51.4133333,21.0916667 51.05,21.435 C50.6866667,21.7783333 50.505,22.2366667 50.505,22.81 L50.505,22.81 L50.505,26.19 C50.505,26.7633333 50.6866667,27.2216667 51.05,27.565 C51.4133333,27.9083333 51.895,28.08 52.495,28.08 Z" id="G" fill="#181830" fill-rule="nonzero"></path>
            <g id="Group-16" transform="translate(57.000000, 19.000000)" fill="#181830">
                <rect id="Rectangle" x="0" y="0" width="2" height="10"></rect>
                <rect id="Rectangle" x="3" y="2" width="2" height="8"></rect>
                <rect id="Rectangle" x="6" y="0" width="2" height="10"></rect>
                <rect id="Rectangle" x="9" y="6" width="2" height="4"></rect>
            </g>
        </g>
    </g>
</svg>