<svg width="469.092" height="73.05" viewBox="0 0 469.092 73.05" xmlns="http://www.w3.org/2000/svg"><g id="svgGroup" stroke-linecap="round" fill-rule="evenodd" font-size="9pt" stroke="#000" stroke-width="0.25mm" fill="#000" style="stroke:#000;stroke-width:0.25mm;fill:#000"><path d="M 426.465 52.638 L 422.217 52.638 A 21.125 21.125 0 0 0 422.907 57.453 A 17.744 17.744 0 0 0 424.17 60.792 Q 425.977 64.406 429.004 66.945 Q 432.373 69.972 436.987 71.51 A 30.14 30.14 0 0 0 446.582 73.048 Q 450.781 73.048 454.81 71.901 Q 458.838 70.753 462.012 68.458 A 17.869 17.869 0 0 0 467.114 62.77 A 14.738 14.738 0 0 0 468.879 57.604 A 19.288 19.288 0 0 0 469.092 54.689 A 18.401 18.401 0 0 0 468.657 50.603 A 14.357 14.357 0 0 0 467.114 46.608 A 19.819 19.819 0 0 0 462.061 40.773 Q 458.789 38.38 454.883 36.72 A 77.302 77.302 0 0 0 447.119 33.888 A 116.048 116.048 0 0 1 442.818 32.474 A 136.893 136.893 0 0 1 440.771 31.74 A 27.565 27.565 0 0 1 436.148 29.552 A 24.63 24.63 0 0 1 434.766 28.663 Q 432.031 26.808 430.322 24.196 Q 428.613 21.583 428.613 17.775 A 13.149 13.149 0 0 1 428.986 14.581 A 10.527 10.527 0 0 1 430.2 11.647 A 13.763 13.763 0 0 1 434.326 7.326 A 17.172 17.172 0 0 1 439.381 4.901 A 19.585 19.585 0 0 1 439.966 4.738 A 24.534 24.534 0 0 1 446.24 3.908 Q 450.049 3.908 453.174 5.104 Q 456.299 6.3 458.643 8.497 A 16.887 16.887 0 0 1 462.171 13.252 A 19.304 19.304 0 0 1 462.378 13.673 A 19.868 19.868 0 0 1 463.988 18.791 A 23.344 23.344 0 0 1 464.209 20.363 L 468.457 20.363 A 22.188 22.188 0 0 0 467.698 15.164 A 19.01 19.01 0 0 0 466.504 11.964 A 20.003 20.003 0 0 0 461.719 5.568 A 21.381 21.381 0 0 0 455.478 1.751 A 24.574 24.574 0 0 0 454.736 1.466 A 24.528 24.528 0 0 0 446.258 0.001 A 27.484 27.484 0 0 0 446.24 0.001 A 27.764 27.764 0 0 0 438.379 1.149 A 23.216 23.216 0 0 0 431.791 4.232 A 21.974 21.974 0 0 0 431.348 4.542 A 18.14 18.14 0 0 0 426.245 10.158 A 14.091 14.091 0 0 0 424.383 16.115 Q 424.315 16.873 424.315 17.664 A 18.593 18.593 0 0 0 424.316 17.872 A 18.514 18.514 0 0 0 424.648 21.472 Q 425.101 23.756 426.171 25.568 A 11.379 11.379 0 0 0 426.489 26.076 Q 428.662 29.347 431.982 31.691 Q 434.912 33.79 438.623 35.28 A 93.108 93.108 0 0 0 444.08 37.28 A 82.069 82.069 0 0 0 445.85 37.843 A 95.045 95.045 0 0 1 450.706 39.487 A 106.663 106.663 0 0 1 452.368 40.114 Q 455.713 41.408 458.447 43.361 Q 461.23 45.265 462.988 48.048 Q 464.699 50.756 464.699 54.574 A 17.25 17.25 0 0 1 464.697 54.787 A 14.99 14.99 0 0 1 464.394 57.875 A 11.203 11.203 0 0 1 463.11 61.256 A 13.912 13.912 0 0 1 458.984 65.724 A 17.33 17.33 0 0 1 454.375 67.968 A 20.304 20.304 0 0 1 453.174 68.312 A 26.705 26.705 0 0 1 446.582 69.142 A 26.46 26.46 0 0 1 441.149 68.6 A 23.41 23.41 0 0 1 439.16 68.092 A 18.888 18.888 0 0 1 433.779 65.513 A 17.754 17.754 0 0 1 433.008 64.943 Q 430.322 62.843 428.613 59.767 A 17.296 17.296 0 0 1 426.917 55.309 A 21.963 21.963 0 0 1 426.465 52.638 Z M 348.291 50.392 L 344.092 50.392 Q 343.457 54.298 342.065 57.765 A 20.791 20.791 0 0 1 339.725 62.093 A 18.445 18.445 0 0 1 338.379 63.771 A 17.378 17.378 0 0 1 332.788 67.799 Q 329.644 69.241 325.47 69.241 A 24.461 24.461 0 0 1 325.195 69.24 A 17.844 17.844 0 0 1 321.721 68.915 A 14.142 14.142 0 0 1 318.823 68.019 A 16.83 16.83 0 0 1 313.867 64.747 A 19.791 19.791 0 0 1 310.181 59.938 A 32.224 32.224 0 0 1 307.715 54.152 Q 306.738 51.124 306.299 47.951 A 51.498 51.498 0 0 1 305.818 42.128 A 47.449 47.449 0 0 1 305.811 41.749 L 305.811 31.203 Q 305.859 28.224 306.299 25.026 A 36.359 36.359 0 0 1 307.715 18.8 Q 308.691 15.773 310.205 13.063 Q 311.719 10.353 313.867 8.253 Q 316.016 6.251 318.848 5.055 A 15.723 15.723 0 0 1 323.039 3.956 A 19.599 19.599 0 0 1 325.195 3.81 A 23.918 23.918 0 0 1 325.467 3.808 Q 329.595 3.808 332.739 5.25 A 16.512 16.512 0 0 1 338.281 9.328 A 20.367 20.367 0 0 1 341.837 14.878 A 23.138 23.138 0 0 1 342.041 15.358 A 33.359 33.359 0 0 1 344.092 22.658 L 348.291 22.658 A 32.392 32.392 0 0 0 346.516 15.035 A 29.82 29.82 0 0 0 345.996 13.722 A 24.098 24.098 0 0 0 342.023 7.281 A 22.698 22.698 0 0 0 341.309 6.495 A 21.506 21.506 0 0 0 334.326 1.71 Q 330.383 0 325.469 0 A 28.472 28.472 0 0 0 325.195 0.001 A 23.257 23.257 0 0 0 320.897 0.434 A 18.73 18.73 0 0 0 317.7 1.369 Q 314.355 2.687 311.719 4.933 A 24.26 24.26 0 0 0 307.227 10.28 Q 305.322 13.331 304.102 16.749 A 40.659 40.659 0 0 0 302.222 23.976 A 49.181 49.181 0 0 0 301.562 31.3 L 301.563 41.749 A 49.181 49.181 0 0 0 302.222 49.074 Q 302.832 52.785 304.102 56.251 A 33.775 33.775 0 0 0 307.202 62.77 A 23.097 23.097 0 0 0 311.719 68.117 A 21.503 21.503 0 0 0 317.7 71.705 A 18.55 18.55 0 0 0 322.437 72.89 A 23.304 23.304 0 0 0 325.195 73.048 A 28.092 28.092 0 0 0 325.465 73.05 Q 328.077 73.05 330.407 72.56 A 19.507 19.507 0 0 0 334.302 71.315 A 21.518 21.518 0 0 0 341.26 66.456 A 22.979 22.979 0 0 0 345.607 60.047 A 26.315 26.315 0 0 0 345.947 59.279 A 32.889 32.889 0 0 0 348.213 50.982 A 36.574 36.574 0 0 0 348.291 50.392 Z M 188.867 57.912 L 184.619 57.912 A 14.457 14.457 0 0 0 185.291 61.67 A 12.059 12.059 0 0 0 186.67 64.552 Q 188.525 67.384 191.553 69.24 A 23.274 23.274 0 0 0 196.119 71.375 A 28.172 28.172 0 0 0 198.462 72.072 A 32.398 32.398 0 0 0 206.396 73.048 A 32.937 32.937 0 0 0 213.278 72.301 A 37.148 37.148 0 0 0 214.282 72.072 A 21.594 21.594 0 0 0 219.58 70.052 A 19.413 19.413 0 0 0 221.436 68.898 A 13.81 13.81 0 0 0 225.317 64.674 A 10.803 10.803 0 0 0 226.771 60.277 A 13.624 13.624 0 0 0 226.855 58.742 A 13.857 13.857 0 0 0 226.558 55.797 A 9.922 9.922 0 0 0 225.122 52.345 A 14.621 14.621 0 0 0 221.078 48.336 A 16.947 16.947 0 0 0 220.557 47.999 A 26.3 26.3 0 0 0 216.015 45.773 A 31.121 31.121 0 0 0 214.185 45.143 A 86.293 86.293 0 0 0 207.08 43.263 A 107.147 107.147 0 0 1 202.649 42.261 A 120.482 120.482 0 0 1 201.123 41.871 A 24.698 24.698 0 0 1 197.879 40.787 A 19.921 19.921 0 0 1 195.654 39.699 A 10.679 10.679 0 0 1 193.488 38.227 A 8.764 8.764 0 0 1 192.017 36.549 A 7.607 7.607 0 0 1 190.799 33.219 A 9.794 9.794 0 0 1 190.723 31.984 A 8.326 8.326 0 0 1 191.029 29.679 A 6.737 6.737 0 0 1 192.163 27.418 Q 193.604 25.538 195.85 24.367 A 18.581 18.581 0 0 1 199.79 22.865 A 21.244 21.244 0 0 1 200.781 22.633 A 26.082 26.082 0 0 1 205.008 22.093 A 23.371 23.371 0 0 1 206.006 22.072 A 23.869 23.869 0 0 1 211.719 22.78 A 19.613 19.613 0 0 1 216.31 24.519 A 18.114 18.114 0 0 1 216.992 24.904 Q 219.336 26.369 220.825 28.566 A 9.226 9.226 0 0 1 222.337 32.707 A 11.46 11.46 0 0 1 222.412 33.693 L 226.709 33.693 A 16.848 16.848 0 0 0 226.117 30.113 A 13.1 13.1 0 0 0 224.707 26.857 A 15.544 15.544 0 0 0 220.166 22.072 A 20.245 20.245 0 0 0 214.559 19.443 A 23.314 23.314 0 0 0 213.647 19.191 A 30.517 30.517 0 0 0 206.753 18.271 A 34.124 34.124 0 0 0 206.006 18.263 Q 202.588 18.263 199.097 19.118 A 23.875 23.875 0 0 0 195.534 20.279 A 19.013 19.013 0 0 0 192.969 21.583 A 15.196 15.196 0 0 0 189.35 24.564 A 13.981 13.981 0 0 0 188.257 25.978 Q 186.475 28.615 186.475 32.13 A 12.948 12.948 0 0 0 186.784 35.035 A 9.432 9.432 0 0 0 188.281 38.429 A 13.568 13.568 0 0 0 192.822 42.482 A 31.089 31.089 0 0 0 199.121 45.143 A 81.237 81.237 0 0 0 203.359 46.266 A 99.156 99.156 0 0 0 206.104 46.876 A 53.615 53.615 0 0 1 210.314 47.89 A 63.067 63.067 0 0 1 212.305 48.488 Q 215.527 49.513 217.92 51.027 A 11.6 11.6 0 0 1 220.907 53.686 A 10.984 10.984 0 0 1 221.338 54.274 A 7.544 7.544 0 0 1 222.591 57.7 A 9.683 9.683 0 0 1 222.656 58.839 A 8.194 8.194 0 0 1 222.374 61.029 A 6.885 6.885 0 0 1 221.655 62.721 A 10.35 10.35 0 0 1 219.659 65.13 A 12.277 12.277 0 0 1 218.945 65.724 Q 216.357 67.531 213.086 68.385 Q 209.814 69.24 206.396 69.24 Q 203.564 69.24 200.61 68.703 Q 197.656 68.165 195.215 66.847 A 12.602 12.602 0 0 1 190.942 63.405 A 9.287 9.287 0 0 1 189.306 60.195 A 12.686 12.686 0 0 1 188.867 57.912 Z M 161.035 63.185 L 161.133 72.072 L 165.234 72.072 L 165.234 19.24 L 160.889 19.24 L 160.938 56.154 A 18.52 18.52 0 0 1 159.551 60.133 A 16.482 16.482 0 0 1 158.789 61.525 Q 157.324 63.917 155.176 65.578 A 16.98 16.98 0 0 1 150.995 67.839 A 19.767 19.767 0 0 1 149.902 68.214 A 20.339 20.339 0 0 1 145.931 69.012 A 25.56 25.56 0 0 1 143.311 69.142 A 18.328 18.328 0 0 1 140.39 68.921 Q 138.749 68.656 137.373 68.073 A 11.107 11.107 0 0 1 137.085 67.946 Q 134.473 66.749 132.764 64.552 A 13.665 13.665 0 0 1 130.899 61.279 A 17.232 17.232 0 0 1 130.225 59.254 A 25.129 25.129 0 0 1 129.538 55.542 A 32.592 32.592 0 0 1 129.346 52.345 L 129.346 19.24 L 125.098 19.24 L 125.098 52.247 A 35.276 35.276 0 0 0 125.453 56.987 A 27.701 27.701 0 0 0 126.27 60.768 Q 127.393 64.601 129.639 67.335 A 14.568 14.568 0 0 0 135.205 71.559 A 17.029 17.029 0 0 0 139.46 72.783 A 22.872 22.872 0 0 0 143.018 73.048 A 26.14 26.14 0 0 0 148.167 72.566 A 18.825 18.825 0 0 0 153.931 70.436 A 18.778 18.778 0 0 0 161.035 63.185 Z M 263.428 19.24 L 263.477 5.324 L 259.082 5.324 L 259.082 19.24 L 243.945 19.24 L 243.945 22.999 L 259.082 22.999 L 259.082 58.302 Q 259.131 62.355 260.376 65.162 A 12.575 12.575 0 0 0 262.304 68.262 A 11.173 11.173 0 0 0 263.818 69.728 A 12.918 12.918 0 0 0 267.798 71.925 A 15.464 15.464 0 0 0 268.921 72.267 A 23.346 23.346 0 0 0 272.833 72.938 A 28.97 28.97 0 0 0 275.391 73.048 Q 276.953 73.048 278.467 72.975 A 35.516 35.516 0 0 0 281.445 72.706 A 29.464 29.464 0 0 0 282.679 72.504 A 24.816 24.816 0 0 0 283.374 72.365 A 12.639 12.639 0 0 0 284.558 72.05 A 10.851 10.851 0 0 0 285.059 71.876 L 284.375 68.41 L 282.837 68.629 A 68.547 68.547 0 0 1 281.152 68.849 Q 279.834 68.995 278.491 69.069 Q 277.148 69.142 275.781 69.142 A 21.758 21.758 0 0 1 272.946 68.964 A 17.626 17.626 0 0 1 270.923 68.58 A 11.116 11.116 0 0 1 268.249 67.539 A 9.8 9.8 0 0 1 267.041 66.749 Q 265.381 65.48 264.453 63.429 A 10.361 10.361 0 0 1 263.8 61.438 Q 263.582 60.472 263.488 59.352 A 20.165 20.165 0 0 1 263.428 58.302 L 263.428 22.999 L 282.764 22.999 L 282.764 19.24 L 263.428 19.24 Z M 27.197 4.884 L 50.195 4.884 L 50.195 0.978 L 0 0.978 L 0 4.884 L 23.096 4.884 L 22.998 72.072 L 27.197 72.072 L 27.197 4.884 Z M 370.459 72.072 L 370.459 42.433 L 388.232 42.433 A 26.728 26.728 0 0 0 394.917 41.542 A 24.249 24.249 0 0 0 396.826 40.944 A 21.369 21.369 0 0 0 402.128 38.183 A 19.421 19.421 0 0 0 403.76 36.867 Q 406.738 34.181 408.447 30.421 A 18.925 18.925 0 0 0 409.954 25.045 A 24.109 24.109 0 0 0 410.156 21.876 A 23.397 23.397 0 0 0 409.652 16.927 A 19.136 19.136 0 0 0 408.472 13.258 A 19.391 19.391 0 0 0 403.809 6.691 Q 400.83 4.005 396.851 2.54 Q 392.871 1.076 388.232 0.978 L 366.211 0.978 L 366.211 72.072 L 370.459 72.072 Z M 77.686 30.763 L 77.686 27.882 L 77.393 19.24 L 73.291 19.24 L 73.291 72.072 L 77.832 72.072 L 77.734 38.283 A 24.833 24.833 0 0 1 79.01 34.374 A 18.853 18.853 0 0 1 80.835 31.032 A 18.886 18.886 0 0 1 84.623 26.943 A 17.486 17.486 0 0 1 85.742 26.124 A 19.706 19.706 0 0 1 91.457 23.515 A 22.449 22.449 0 0 1 92.114 23.341 Q 95.654 22.462 99.512 22.462 Q 101.465 22.462 103.345 22.682 A 48.776 48.776 0 0 1 106.872 23.222 A 44.927 44.927 0 0 1 106.982 23.244 L 107.471 19.142 A 22.154 22.154 0 0 0 106.053 18.828 Q 105.324 18.69 104.508 18.579 A 37.866 37.866 0 0 0 103.955 18.507 Q 101.953 18.263 100 18.263 Q 92.139 18.214 86.426 21.51 A 21.904 21.904 0 0 0 77.686 30.763 Z M 388.232 38.576 L 370.459 38.576 L 370.459 4.787 L 388.232 4.787 A 21.573 21.573 0 0 1 393.584 5.578 A 19.484 19.484 0 0 1 395.239 6.129 A 17.893 17.893 0 0 1 399.791 8.656 A 16.527 16.527 0 0 1 400.879 9.572 Q 403.223 11.818 404.59 14.943 A 16.28 16.28 0 0 1 405.824 19.609 A 20.404 20.404 0 0 1 405.957 21.974 A 18.281 18.281 0 0 1 405.576 25.785 A 14.62 14.62 0 0 1 404.565 28.859 A 15.656 15.656 0 0 1 400.781 34.035 A 16.866 16.866 0 0 1 395.615 37.185 A 19.312 19.312 0 0 1 395.166 37.355 A 20.543 20.543 0 0 1 389.38 38.533 A 23.693 23.693 0 0 1 388.232 38.576 Z" vector-effect="non-scaling-stroke"/></g></svg>
