<svg height="30" width="30" xmlns="http://www.w3.org/2000/svg"><path d="m-1-1h32v32h-32z" fill="#fafafa"/><path d="m18.803591 16.46051c2.082088-1.28113 3.477659-3.57233 3.477659-6.18854 0-4.00976-3.2666-7.27197-7.281249-7.27197s-7.28125 3.26221-7.28125 7.27197c0 2.61621 1.395569 4.907411 3.47766 6.18854-4.49579 1.007141-7.65051 3.75836-7.65051 7.08783 0 2.724609 7.20019 3.45166 11.454101 3.45166s11.454099-.727051 11.454099-3.45166c0-3.32947-3.15472-6.080688-7.650509-7.08783zm-9.584841-6.18854c0-3.18261 2.59375-5.77197 5.781251-5.77197s5.781249 2.58936 5.781249 5.77197-2.59375 5.771491-5.781249 5.771491-5.781251-2.588871-5.781251-5.771491zm5.781251 15.22803c-6.114991 0-9.775391-1.28998-9.953671-1.95673.00463-3.30871 4.468261-5.999809 9.953671-5.999809 5.484859 0 9.948119 2.690609 9.953609 5.998838-.173819.666262-3.834589 1.957701-9.953609 1.957701z" fill="#5e7677" opacity=".1"/></svg>