<svg xmlns="http://www.w3.org/2000/svg" xmlns:xlink="http://www.w3.org/1999/xlink" width="135" height="88" viewBox="0 0 135 88"><defs><symbol id="a" viewBox="0 0 26 26"><path stroke="#fff" fill="none" d="M1.001 1l23.998 24M1 24.999l24-23.998"/></symbol><symbol id="b" viewBox="0 0 11 7"><path stroke="#fff" fill="none" d="M1 1l4.502 4.502 4.498-4.498"/></symbol><symbol id="c" viewBox="0 0 50 9"><path stroke="#5e7677" fill="none" d="M44.261.773l4.005 3.727-4.005 3.726M0 4.5h48.266"/></symbol><symbol id="d" viewBox="0 0 24 39"><path fill="#5e7677" d="M0 0h24v39h-24z"/><path stroke="#fff" fill="none" d="M14.957 12.246l-7.254 7.254 7.254 7.254"/></symbol><symbol id="e" viewBox="0 0 24 39"><path fill="#5e7677" d="M0 0h24v39h-24z"/><path stroke="#fff" fill="none" d="M9.043 26.754l7.254-7.254-7.254-7.254"/></symbol><symbol id="f" viewBox="0 0 16 9"><path stroke="#d20000" fill="none" d="M.75 1l7.25 7 7.25-7"/></symbol><symbol id="g" viewBox="0 0 16 16"><path stroke="#5e7677" fill="none" d="M16 8h-16M8 0v16"/></symbol><symbol id="h" viewBox="0 0 50 9"><path stroke="#fff" fill="none" d="M44.261.773l4.005 3.727-4.005 3.726M0 4.5h48.266"/></symbol><symbol id="i" viewBox="0 0 50 9"><path stroke="#d20000" fill="none" d="M44.261.773l4.005 3.727-4.005 3.726M0 4.5h48.266"/></symbol><symbol id="j" viewBox="0 0 24 39"><path fill="#d20000" d="M0 0h24v39h-24z"/><path stroke="#fff" fill="none" d="M14.957 12.246l-7.254 7.254 7.254 7.254"/></symbol><symbol id="k" viewBox="0 0 24 39"><path fill="#d20000" d="M0 0h24v39h-24z"/><path stroke="#fff" fill="none" d="M9.043 26.754l7.254-7.254-7.254-7.254"/></symbol><symbol id="l" viewBox="0 0 16 16"><path stroke="#5e7677" fill="none" d="M16 8h-16"/></symbol><symbol id="m" viewBox="0 0 16 16"><path stroke="#8e9fa0" fill="none" d="M16 8h-16M8 0v16"/></symbol><symbol id="n" viewBox="0 0 16 16"><path stroke="#8e9fa0" fill="none" d="M16 8h-16"/></symbol><symbol id="o" viewBox="0 0 16 16"><path stroke="#d20000" fill="none" d="M16 8h-16M8 0v16"/></symbol><symbol id="p" viewBox="0 0 16 16"><path stroke="#d20000" fill="none" d="M16 8h-16"/></symbol><symbol id="q" viewBox="0 0 16 9"><path stroke="#fff" fill="none" d="M.75 1l7.25 7 7.25-7"/></symbol><symbol id="r" viewBox="0 0 16 9"><path stroke="#000" fill="none" d="M.75 1l7.25 7 7.25-7"/></symbol><symbol id="s" viewBox="0 0 26 26"><path stroke="#5e7677" fill="none" d="M1.001 1l23.998 24M1 24.999l24-23.998"/></symbol><symbol id="t" viewBox="0 0 6.328 11.094"><path stroke="#5e7677" fill="none" d="M5.463.951l-4.598 4.598 4.594 4.593"/></symbol><symbol id="u" viewBox="0 0 6.328 11.094"><path stroke="#5e7677" fill="none" d="M.865 10.142l4.598-4.598-4.594-4.593"/></symbol><symbol id="v" viewBox="0 0 26 26"><path stroke="#000" fill="none" d="M1.001 1l23.998 24M1 24.999l24-23.998"/></symbol><symbol id="w" viewBox="0 0 11 7"><path stroke="#5e7677" fill="none" d="M1 1l4.502 4.502 4.498-4.498"/></symbol><symbol id="x" viewBox="0 0 11 7"><path stroke="#000" fill="none" d="M1 1l4.502 4.502 4.498-4.498"/></symbol><symbol id="y" viewBox="0 0 16 9"><path stroke="#5e7677" fill="none" d="M15.25 8l-7.25-7-7.25 7"/></symbol><symbol id="z" viewBox="0 0 16 9"><path stroke="#5e7677" fill="none" d="M.75 1l7.25 7 7.25-7"/></symbol><symbol id="A" viewBox="0 0 13 13"><circle cx="6.5" cy="6.5" r="5" stroke="#5e7677" fill="none"/><path stroke="#5e7677" fill="none" d="M6.5 2.5v4M9.5 6.5h-3.5"/></symbol><symbol id="B" viewBox="0 0 12 13"><path stroke="#5e7677" stroke-miterlimit="10" fill="none" d="M1.5 4.5h3v3h-3zM4.5 7.5h3v3h-3zM7.5 4.5h3v3h-3zM1.5 4.5h9v6h-9z"/><path fill="#5e7677" stroke="#5e7677" stroke-miterlimit="10" d="M1.5 2.5h9v2h-9z"/></symbol></defs><title>#{$path-images}sprite.svg</title><use width="26" height="26" transform="translate(52 1)" xlink:href="#a"/><use width="11" height="7" transform="translate(111 28)" xlink:href="#b"/><use width="50" height="9" transform="translate(1 1)" xlink:href="#c"/><use width="24" height="39" transform="translate(1 48)" xlink:href="#d"/><use width="24" height="39" transform="translate(26 48)" xlink:href="#e"/><use width="16" height="9" transform="translate(65 28)" xlink:href="#f"/><use width="16" height="16" transform="translate(101 37)" xlink:href="#g"/><use width="50" height="9" transform="translate(1 11)" xlink:href="#h"/><use width="50" height="9" transform="translate(1 21)" xlink:href="#i"/><use width="24" height="39" transform="translate(51 48)" xlink:href="#j"/><use width="24" height="39" transform="translate(76 48)" xlink:href="#k"/><use width="16" height="16" transform="translate(118 37)" xlink:href="#l"/><use width="16" height="16" transform="translate(101 54)" xlink:href="#m"/><use width="16" height="16" transform="translate(118 54)" xlink:href="#n"/><use width="16" height="16" transform="translate(101 71)" xlink:href="#o"/><use width="16" height="16" transform="translate(118 71)" xlink:href="#p"/><use width="16" height="9" transform="translate(82 28)" xlink:href="#q"/><use width="16" height="9" transform="translate(50 38)" xlink:href="#r"/><use width="26" height="26" transform="translate(79 1)" xlink:href="#s"/><use width="6.328" height="11.094" transform="translate(35.344 35.906)" xlink:href="#t"/><use width="6.328" height="11.094" transform="translate(42.672 35.906)" xlink:href="#u"/><use width="26" height="26" transform="translate(106 1)" xlink:href="#v"/><use width="11" height="7" transform="translate(123 28)" xlink:href="#w"/><use width="11" height="7" transform="translate(99 28)" xlink:href="#x"/><use width="16" height="9" transform="translate(84 38)" xlink:href="#y"/><use width="16" height="9" transform="translate(67 38)" xlink:href="#z"/><use width="13" height="13" transform="translate(21.344 34)" xlink:href="#A"/><use width="12" height="13" transform="translate(8.344 34)" xlink:href="#B"/></svg>